<svg width="110" height="110" viewBox="0 0 152 156" fill="none" xmlns="http://www.w3.org/2000/svg">
<path d="M81.5487 84.8386C65.3183 93.7783 54.3906 110.465 54.3906 129.589C54.3906 130.272 54.4005 130.951 54.4303 131.626C55.7584 164.112 107.339 164.112 108.667 131.626C108.697 130.951 108.707 130.272 108.707 129.589C108.712 110.465 97.7792 93.7783 81.5487 84.8386Z" fill="#00A3FF"/>
<path d="M33.2046 0.801208C13.4089 11.5004 0.074707 31.4712 0.074707 54.3594C0.074707 55.1777 0.0928413 55.9903 0.129108 56.8029C1.74299 95.6779 64.6602 95.6779 66.2802 56.8029C66.3104 55.9903 66.3285 55.1777 66.3285 54.3594C66.3285 31.4712 53.0004 11.5004 33.2046 0.801208Z" fill="#00A3FF"/>
<path d="M126.613 22.0908C111.988 30.1152 102.141 45.0933 102.141 62.2595C102.141 62.8732 102.154 63.4826 102.177 64.0921C103.374 93.2483 149.853 93.2483 151.05 64.0921C151.076 63.4826 151.085 62.8732 151.085 62.2595C151.09 45.0933 141.243 30.1152 126.613 22.0908Z" fill="#00A3FF"/>
</svg>
