<svg width="110" height="110" viewBox="0 0 238 146" fill="none" xmlns="http://www.w3.org/2000/svg">
<path d="M237.371 106.168C237.371 128.141 219.526 145.953 197.505 145.953H53.2491C23.9764 145.953 0.242493 122.271 0.242493 93.0458C0.242493 63.829 23.9764 40.1382 53.2491 40.1382C55.8744 40.1382 58.4549 40.3394 60.985 40.7054C72.9555 16.9783 97.5738 0.696411 126.013 0.696411C160.424 0.696411 189.252 24.5437 196.825 56.5821C197.581 59.7809 198.127 63.058 198.44 66.3965V66.4049C220.019 66.8966 237.371 84.5082 237.371 106.168Z" fill="#BAC7CB" fill-opacity="0.4"/>
<g filter="url(#filter0_b_101_2)">
<path d="M237.371 106.168C237.371 128.141 219.526 145.953 197.505 145.953H53.2491C23.9764 145.953 0.242493 122.271 0.242493 93.0458C0.242493 63.829 23.9764 40.1382 53.2491 40.1382C55.8744 40.1382 58.4549 40.3394 60.985 40.7054C72.9555 16.9783 97.5738 0.696411 126.013 0.696411C160.424 0.696411 189.252 24.5437 196.825 56.5821C197.581 59.7809 198.127 63.058 198.44 66.3965V66.4049C220.019 66.8966 237.371 84.5082 237.371 106.168Z" fill="url(#paint0_linear_101_2)"/>
</g>
<g filter="url(#filter1_b_101_2)">
<path fill-rule="evenodd" clip-rule="evenodd" d="M61.6912 42.062L60.8073 41.9341C58.3318 41.576 55.8108 41.3798 53.2491 41.3798C24.6599 41.3798 1.48401 64.5169 1.48401 93.0458C1.48401 121.583 24.6598 144.712 53.2491 144.712H197.505C218.843 144.712 236.13 127.453 236.13 106.168C236.13 85.187 219.32 68.1225 198.412 67.6461L197.199 67.6184V66.4549C196.89 63.1947 196.355 59.9936 195.617 56.8677C188.173 25.3781 159.837 1.93792 126.013 1.93792C98.0597 1.93792 73.8607 17.9403 62.0935 41.2646L61.6912 42.062ZM198.44 66.3965V66.4049C220.019 66.8966 237.371 84.5082 237.371 106.168C237.371 128.141 219.526 145.953 197.505 145.953H53.2491C23.9764 145.953 0.242493 122.271 0.242493 93.0458C0.242493 63.829 23.9764 40.1382 53.2491 40.1382C55.8744 40.1382 58.4549 40.3394 60.985 40.7054C72.9555 16.9783 97.5738 0.696411 126.013 0.696411C160.424 0.696411 189.252 24.5437 196.825 56.5821C197.581 59.7809 198.127 63.058 198.44 66.3965Z" fill="url(#paint1_linear_101_2)"/>
</g>
<defs>
<filter id="filter0_b_101_2" x="-30.7953" y="-30.3414" width="299.205" height="207.333" filterUnits="userSpaceOnUse" color-interpolation-filters="sRGB">
<feFlood flood-opacity="0" result="BackgroundImageFix"/>
<feGaussianBlur in="BackgroundImageFix" stdDeviation="15.5189"/>
<feComposite in2="SourceAlpha" operator="in" result="effect1_backgroundBlur_101_2"/>
<feBlend mode="normal" in="SourceGraphic" in2="effect1_backgroundBlur_101_2" result="shape"/>
</filter>
<filter id="filter1_b_101_2" x="-30.7953" y="-30.3414" width="299.205" height="207.333" filterUnits="userSpaceOnUse" color-interpolation-filters="sRGB">
<feFlood flood-opacity="0" result="BackgroundImageFix"/>
<feGaussianBlur in="BackgroundImageFix" stdDeviation="15.5189"/>
<feComposite in2="SourceAlpha" operator="in" result="effect1_backgroundBlur_101_2"/>
<feBlend mode="normal" in="SourceGraphic" in2="effect1_backgroundBlur_101_2" result="shape"/>
</filter>
<linearGradient id="paint0_linear_101_2" x1="37.7983" y1="26.1474" x2="206.023" y2="145.953" gradientUnits="userSpaceOnUse">
<stop offset="0.416176" stop-color="white" stop-opacity="0.7"/>
<stop offset="1" stop-color="white" stop-opacity="0"/>
</linearGradient>
<linearGradient id="paint1_linear_101_2" x1="-17.916" y1="38.9736" x2="66.9865" y2="100.041" gradientUnits="userSpaceOnUse">
<stop stop-color="white"/>
<stop offset="1" stop-color="white" stop-opacity="0"/>
</linearGradient>
</defs>
</svg>
